<?xml version="1.0" encoding="UTF-8"?>
<svg width="9px" height="6px" viewBox="0 0 9 6" version="1.1" xmlns="http://www.w3.org/2000/svg" xmlns:xlink="http://www.w3.org/1999/xlink">
    <title>Path</title>
    <g id="Page-1" stroke="none" stroke-width="1" fill="none" fill-rule="evenodd">
        <g id="Логистика-Copy-39" transform="translate(-966.000000, -1085.000000)" fill="#FFFFFF">
            <g id="Group-26-Copy" transform="translate(954.000000, 987.000000)">
                <g id="Group-12" transform="translate(10.000000, 7.000000)">
                    <g id="Group-17" transform="translate(0.000000, 87.000000)">
                        <path d="M2.4957554,6.56878911 C2.22195725,6.29499096 2.21108563,5.8502211 2.47637999,5.57018816 L2.43373236,5.6152051 C2.69682977,5.33749117 3.13625983,5.33850702 3.41212236,5.61436955 L5.6531289,7.85537609 C5.72989975,7.93214695 5.85360397,7.93791618 5.93681104,7.86148178 L9.62456511,4.47389374 C9.90948016,4.21216946 10.3398081,4.23453959 10.5903639,4.52931111 L10.5500856,4.48192485 C10.7985664,4.7742553 10.7762245,5.21980337 10.4816104,5.49439522 L6.1583418,9.52384943 C5.95609127,9.71235477 5.62919154,9.70222525 5.44217708,9.51521078 L2.4957554,6.56878911 Z" id="Path"></path>
                    </g>
                </g>
            </g>
        </g>
    </g>
</svg>